<?xml version="1.0" standalone="no"?>
<!DOCTYPE svg PUBLIC "-//W3C//DTD SVG 20010904//EN"
 "http://www.w3.org/TR/2001/REC-SVG-20010904/DTD/svg10.dtd">
<svg version="1.0" xmlns="http://www.w3.org/2000/svg"
 width="157.000000pt" height="157.000000pt" viewBox="0 0 157.000000 157.000000"
 preserveAspectRatio="xMidYMid meet">
<metadata>
Created by potrace 1.14, written by Peter Selinger 2001-2017
</metadata>
<g transform="translate(0.000000,157.000000) scale(0.100000,-0.100000)"
fill="#000000" stroke="none">
<path d="M302 1553 c2 -12 -6 -19 -26 -23 -16 -3 -31 -11 -34 -17 -4 -15 14
-17 23 -3 4 6 10 8 15 5 5 -3 12 0 16 6 5 9 15 3 30 -17 18 -21 26 -26 35 -17
6 6 19 9 27 5 28 -10 -20 33 -51 46 -15 7 -25 17 -22 22 3 6 1 10 -5 10 -6 0
-10 -8 -8 -17z"/>
<path d="M340 1555 c0 -8 8 -15 18 -15 9 0 26 -7 36 -15 17 -13 22 -13 38 2
17 15 18 14 18 -21 0 -36 -12 -67 -39 -96 -13 -13 -12 -15 3 -18 10 -2 15 -10
12 -18 -3 -8 0 -14 6 -14 6 0 -13 -22 -44 -50 -51 -46 -88 -103 -75 -116 2 -3
15 11 27 30 12 20 28 36 36 36 8 0 14 5 14 10 0 6 8 10 17 10 14 0 12 -5 -10
-25 -34 -32 -34 -38 3 -52 26 -10 32 -9 40 8 6 11 21 19 35 19 31 0 33 -16 3
-23 -12 -4 -19 -9 -15 -13 4 -4 1 -14 -6 -22 -10 -13 -8 -14 11 -8 22 7 31 -7
12 -19 -6 -4 -8 -11 -5 -16 3 -5 -1 -6 -9 -3 -9 3 -16 1 -16 -4 0 -6 9 -13 19
-17 11 -3 23 -15 26 -27 5 -14 10 -17 17 -10 8 8 20 1 42 -20 30 -30 31 -31
34 -10 2 12 7 20 12 17 5 -3 7 -12 3 -20 -3 -8 0 -15 6 -15 6 0 11 7 11 15 0
8 5 15 10 15 20 0 25 2 38 12 9 8 16 8 25 -1 9 -10 8 -11 -5 -6 -11 5 -16 1
-15 -12 2 -12 -4 -17 -16 -15 -9 2 -24 -4 -33 -13 -13 -13 -13 -17 -1 -29 8
-9 19 -11 27 -6 19 12 42 0 35 -17 -4 -12 0 -14 16 -10 17 5 19 3 10 -6 -14
-14 -43 -16 -54 -2 -4 6 -7 1 -5 -10 3 -17 -2 -20 -34 -17 -29 3 -38 0 -38
-12 0 -19 36 -22 43 -3 4 7 6 6 6 -4 1 -9 -6 -20 -15 -23 -8 -3 -13 -10 -10
-15 4 -5 -7 -24 -24 -42 -21 -24 -26 -35 -17 -41 16 -10 -22 -10 -168 2 -65 6
-124 15 -129 20 -7 7 -1 10 17 10 29 0 34 9 15 28 -10 10 -7 16 10 28 25 18
21 35 -7 27 -20 -5 -19 -10 -20 130 0 24 -4 36 -11 32 -13 -8 -13 6 0 39 7 19
6 24 -3 20 -7 -2 -13 -13 -14 -23 -1 -10 -11 -49 -23 -87 -18 -60 -24 -70 -45
-72 -31 -2 -32 10 -2 23 14 7 22 19 23 38 1 31 -11 34 -38 10 -16 -14 -21 -15
-28 -4 -5 9 -14 11 -26 6 -11 -5 -26 -7 -34 -6 -8 1 -4 -5 10 -13 23 -14 23
-15 4 -16 -11 0 -24 3 -28 7 -13 13 -44 10 -39 -4 3 -7 -2 -13 -11 -13 -9 0
-16 -7 -16 -15 0 -13 4 -14 33 -2 48 20 65 12 64 -28 -1 -38 -23 -50 -52 -29
-34 25 -45 17 -45 -32 0 -33 3 -43 13 -38 7 5 6 1 -2 -10 -13 -16 -13 -17 5
-14 13 2 18 -2 16 -13 -1 -10 6 -19 19 -22 11 -3 18 -10 15 -15 -3 -5 7 -15
22 -22 22 -11 24 -14 10 -17 -10 -3 -28 3 -40 11 -24 17 -38 20 -38 8 0 -4 10
-12 22 -17 13 -6 24 -18 26 -29 3 -11 0 -16 -7 -12 -6 4 -11 2 -11 -5 0 -7 -7
-20 -14 -28 -10 -11 -12 -22 -6 -30 6 -11 13 -5 27 25 18 40 53 59 53 30 0 -9
-4 -16 -8 -16 -11 0 -9 -91 2 -108 5 -9 2 -15 -12 -18 -10 -3 -26 -21 -36 -40
-9 -19 -23 -37 -31 -40 -13 -5 -13 -9 -3 -21 10 -12 9 -17 -5 -24 -10 -6 -17
-22 -17 -37 0 -21 2 -24 10 -12 8 12 10 11 10 -6 0 -17 5 -20 23 -17 14 3 31
-4 46 -18 l25 -23 -33 -13 c-18 -8 -37 -10 -43 -7 -7 4 -8 2 -4 -5 4 -6 13
-11 19 -10 7 1 20 1 31 0 15 -1 16 -4 6 -16 -9 -10 -9 -15 -1 -15 6 0 11 -7
11 -15 0 -18 -12 -19 -27 -4 -7 7 -12 6 -16 -5 -4 -9 -2 -16 3 -16 5 0 1 -13
-8 -30 -9 -16 -22 -30 -28 -30 -6 0 -11 -6 -12 -12 -1 -7 -4 -32 -8 -56 l-6
-43 38 3 c35 3 39 6 42 33 2 17 9 36 15 44 10 12 9 13 -3 6 -9 -5 -6 2 6 16
11 13 32 43 48 67 31 49 73 78 161 108 33 12 95 33 137 48 42 15 89 38 103 52
26 24 31 25 119 18 l92 -6 -20 -43 c-18 -39 -22 -41 -34 -27 -11 15 -13 9 -9
-40 4 -46 2 -60 -14 -77 -25 -26 -24 -31 8 -65 l27 -29 12 39 c7 21 15 50 18
64 3 14 20 41 37 60 29 33 30 33 26 10 -2 -14 -8 -34 -12 -44 -8 -18 -4 -19
85 -13 52 4 96 11 99 16 9 13 247 25 255 13 9 -16 -4 -19 -164 -38 -25 -3 -55
-12 -68 -20 -12 -8 -26 -13 -30 -10 -4 2 -25 -4 -46 -14 -39 -17 -40 -17 -56
2 -14 18 -20 19 -39 9 -24 -13 -24 -36 0 -36 16 0 19 -33 4 -54 -7 -11 -7 -13
3 -7 7 4 12 2 12 -5 0 -7 3 -9 6 -6 4 3 15 2 26 -4 15 -8 19 -7 17 3 -3 28 2
38 21 38 11 0 20 -5 20 -12 0 -9 3 -9 12 0 18 18 28 15 28 -8 0 -15 7 -20 28
-21 16 -1 20 -3 10 -6 -10 -2 -18 -9 -18 -14 0 -6 4 -8 9 -5 17 11 18 -19 2
-31 -13 -10 43 -12 272 -13 l287 0 0 350 c0 266 -3 350 -12 350 -9 0 -9 3 0
12 15 15 17 178 1 178 -5 0 -7 5 -4 10 6 9 -8 14 -28 11 -5 -1 -5 3 -2 9 4 6
9 9 13 6 3 -3 11 2 18 12 10 12 13 57 14 154 0 116 -2 138 -16 146 -15 8 -15
10 0 15 21 8 24 114 2 114 -7 0 -13 -7 -12 -16 1 -11 -7 -16 -26 -16 -25 1
-28 -3 -28 -31 0 -27 -4 -32 -20 -31 -19 1 -29 17 -11 17 4 0 7 15 5 33 -2 17
1 39 6 47 9 13 11 13 20 0 8 -13 10 -12 10 3 0 9 -4 17 -10 17 -18 0 -10 21
11 28 11 5 21 12 21 17 0 6 4 9 9 8 5 -2 10 7 11 20 2 36 3 41 10 53 4 6 4 20
1 32 -8 31 -45 29 -60 -4 -11 -23 -10 -27 6 -31 24 -6 33 -49 15 -64 -8 -6
-14 -8 -14 -4 0 4 -7 2 -15 -5 -20 -17 -32 -4 -19 18 7 11 8 26 3 40 -5 13 -6
35 -3 48 l6 24 -120 0 c-84 0 -130 -4 -155 -15 -20 -8 -39 -15 -42 -15 -3 0
-5 7 -5 15 0 8 -4 15 -9 15 -11 0 -5 -71 7 -79 7 -5 32 -65 32 -77 0 -2 -6 -4
-14 -4 -16 0 -29 -27 -20 -41 8 -14 -12 -11 -25 4 -6 8 -29 20 -51 27 -22 7
-40 19 -40 27 0 7 -8 13 -17 13 -17 1 -17 1 0 14 22 17 21 18 -5 47 -12 13
-19 17 -15 8 3 -9 1 -22 -4 -30 -7 -11 -9 -9 -9 9 0 12 -4 22 -10 22 -15 0
-28 -33 -23 -62 3 -24 0 -28 -19 -27 -13 0 -32 4 -43 9 -19 8 -19 9 2 9 12 1
24 5 27 10 9 14 -20 21 -33 8 -8 -8 -14 -9 -19 -1 -4 6 -15 14 -26 17 -18 7
-18 17 -1 74 9 28 -17 26 -45 -5 -23 -24 -75 -30 -83 -9 -3 7 -6 5 -6 -5 -1
-10 -8 -18 -16 -18 -8 0 -15 -7 -15 -15 0 -13 -6 -17 -26 -14 -4 0 -10 -5 -15
-13 -6 -10 -11 -9 -23 7 -9 11 -13 26 -11 33 2 6 1 12 -3 12 -15 0 -31 -16
-46 -45 -12 -22 -12 -32 -4 -43 9 -10 8 -16 -3 -23 -19 -12 -59 -11 -59 1 0 5
5 9 11 8 6 -2 14 3 16 10 3 7 -4 12 -19 12 -18 0 -24 5 -23 20 1 11 4 22 7 25
2 3 2 22 -1 43 l-6 37 -63 3 c-51 2 -62 0 -62 -13z m880 -9 c0 -3 -4 -8 -10
-11 -5 -3 -10 -1 -10 4 0 6 5 11 10 11 6 0 10 -2 10 -4z m-50 -26 c0 -5 -4
-10 -10 -10 -5 0 -10 5 -10 10 0 6 5 10 10 10 6 0 10 -4 10 -10z m88 -31 c-2
-6 -8 -10 -13 -10 -5 0 -11 4 -13 10 -2 6 4 11 13 11 9 0 15 -5 13 -11z m87 1
c3 -5 2 -10 -4 -10 -5 0 -13 5 -16 10 -3 6 -2 10 4 10 5 0 13 -4 16 -10z
m-752 -16 c8 -8 -3 -34 -14 -34 -5 0 -9 9 -9 20 0 19 11 26 23 14z m707 0 c0
-13 -21 -44 -30 -44 -14 0 -12 18 3 35 12 15 27 20 27 9z m-70 -34 c0 -5 -5
-10 -11 -10 -5 0 -7 5 -4 10 3 6 8 10 11 10 2 0 4 -4 4 -10z m96 -15 c-6 -17
20 -23 57 -14 15 4 25 4 22 -1 -3 -4 0 -10 6 -12 12 -4 21 -66 12 -81 -2 -4
-12 -3 -22 2 -12 7 -26 6 -43 -3 -25 -13 -60 -5 -46 10 10 10 -11 46 -22 39
-6 -3 -7 1 -4 9 3 9 12 16 20 16 10 0 12 8 7 32 -5 23 -3 29 6 24 7 -5 10 -14
7 -21z m-116 -30 c0 -8 -4 -15 -9 -15 -5 0 -11 -8 -14 -17 -4 -17 -4 -17 -11
-1 -5 10 -2 23 6 32 17 20 28 20 28 1z m-467 -12 c-7 -2 -21 -2 -30 0 -10 3
-4 5 12 5 17 0 24 -2 18 -5z m37 -3 c0 -5 -2 -10 -4 -10 -3 0 -8 5 -11 10 -3
6 -1 10 4 10 6 0 11 -4 11 -10z m73 3 c-7 -2 -19 -2 -25 0 -7 3 -2 5 12 5 14
0 19 -2 13 -5z m-283 -18 c0 -8 -4 -15 -10 -15 -5 0 -7 7 -4 15 4 8 8 15 10
15 2 0 4 -7 4 -15z m662 -48 l33 2 -29 -9 c-31 -10 -56 1 -56 24 0 6 5 4 10
-4 6 -9 22 -14 42 -13z m76 -37 c1 -1 5 -3 10 -5 66 -18 64 -16 47 -35 -10
-11 -14 -26 -10 -38 3 -11 1 -23 -5 -27 -7 -4 -10 -1 -9 6 2 8 -2 24 -9 37 -7
12 -10 27 -7 32 3 6 1 10 -4 10 -6 0 -11 -4 -11 -10 0 -5 -5 -10 -11 -10 -6 0
-9 7 -5 15 3 9 0 15 -9 15 -7 0 -16 4 -19 9 -5 7 34 8 42 1z m122 6 c0 -3 -4
-8 -10 -11 -5 -3 -10 -1 -10 4 0 6 5 11 10 11 6 0 10 -2 10 -4z m-990 -36 c0
-5 -4 -10 -10 -10 -5 0 -10 5 -10 10 0 6 5 10 10 10 6 0 10 -4 10 -10z m1045
0 c3 -5 -1 -10 -9 -10 -9 0 -16 -4 -16 -9 0 -5 -11 -8 -25 -7 -28 1 -31 6 -13
24 15 15 54 16 63 2z m-61 -62 c-6 -10 -31 1 -37 16 -4 11 0 11 18 2 13 -6 21
-14 19 -18z m41 12 c-3 -5 -12 -10 -18 -10 -7 0 -6 4 3 10 19 12 23 12 15 0z
m-890 -9 c3 -6 -3 -9 -14 -8 -11 0 -17 5 -15 9 7 11 22 10 29 -1z m744 -25
c-3 -3 -11 5 -18 17 -13 21 -12 21 5 5 10 -10 16 -20 13 -22z m196 14 c8 -13
-5 -13 -25 0 -13 8 -13 10 2 10 9 0 20 -4 23 -10z m-807 -48 c16 -21 15 -33
-1 -26 -8 3 -20 -2 -27 -11 -11 -13 -15 -13 -22 -3 -8 10 -11 10 -15 1 -2 -7
-12 -13 -21 -13 -12 1 -9 7 13 25 17 14 25 25 18 25 -7 0 -10 7 -7 15 8 19 43
11 62 -13z m732 18 c0 -5 -5 -10 -11 -10 -5 0 -7 5 -4 10 3 6 8 10 11 10 2 0
4 -4 4 -10z m-860 -19 c0 -5 -9 -11 -21 -14 -16 -4 -18 -3 -8 9 13 16 29 19
29 5z m45 -11 c-3 -5 -11 -10 -16 -10 -6 0 -7 5 -4 10 3 6 11 10 16 10 6 0 7
-4 4 -10z m142 -15 c-4 -8 -11 -15 -17 -15 -14 0 -13 27 3 33 16 6 21 1 14
-18z m673 5 c0 -5 -7 -10 -16 -10 -8 0 -12 5 -9 10 3 6 10 10 16 10 5 0 9 -4
9 -10z m60 -150 c0 -5 -4 -10 -10 -10 -5 0 -10 5 -10 10 0 6 5 10 10 10 6 0
10 -4 10 -10z m-75 -26 c-11 -8 -26 -22 -32 -31 -12 -15 -13 -15 -13 3 0 10
10 24 23 30 32 17 45 16 22 -2z m-729 -26 c4 -7 4 -10 -1 -6 -4 4 -14 3 -22
-3 -8 -8 -13 -8 -13 -1 0 6 6 13 13 15 6 3 13 6 14 6 1 1 5 -5 9 -11z m-456
-28 c0 -5 -2 -10 -4 -10 -3 0 -8 5 -11 10 -3 6 -1 10 4 10 6 0 11 -4 11 -10z
m402 -22 c-7 -7 -12 -8 -12 -2 0 14 12 26 19 19 2 -3 -1 -11 -7 -17z m-524 -3
c-7 -7 -97 -9 -105 -2 -3 4 20 7 52 7 32 0 56 -2 53 -5z m1288 -27 c-11 -15
-16 -18 -16 -7 0 16 21 42 28 34 2 -2 -3 -14 -12 -27z m-1136 -59 c0 -5 -4 -9
-10 -9 -5 0 -10 7 -10 16 0 8 5 12 10 9 6 -3 10 -10 10 -16z m390 5 c0 -2 -17
-4 -37 -3 -33 1 -35 2 -13 8 23 7 50 4 50 -5z m-299 -3 c14 -1 37 -11 50 -22
l24 -22 -28 7 c-19 4 -26 3 -22 -4 3 -5 22 -10 42 -10 20 0 33 -3 30 -7 -4 -3
-34 -5 -67 -4 -38 1 -60 -2 -60 -8 0 -6 5 -11 11 -11 5 0 7 -4 4 -10 -3 -5 -1
-10 6 -10 7 0 9 -3 6 -7 -4 -3 -16 2 -27 12 -20 18 -20 17 -21 -16 l-1 -34 -8
40 c-4 22 -6 42 -4 44 2 2 -4 10 -14 17 -16 13 -16 13 1 14 15 0 16 3 7 20
-10 19 -9 20 17 16 15 -2 40 -5 54 -5z m139 -16 c0 -2 -9 -9 -20 -15 -16 -9
-18 -8 -14 5 5 13 34 22 34 10z m-335 -15 c-3 -5 0 -7 8 -4 8 3 17 -1 20 -9 8
-21 -35 -18 -64 4 l-24 19 33 0 c19 0 31 -4 27 -10z m345 -10 c0 -5 -4 -10
-10 -10 -5 0 -10 5 -10 10 0 6 5 10 10 10 6 0 10 -4 10 -10z m955 -11 c-4 -5
-12 -9 -18 -8 -9 0 -8 2 1 6 6 2 9 10 6 15 -4 7 -2 8 5 4 6 -4 9 -12 6 -17z
m-870 -12 c30 -2 13 -4 -40 -5 -83 -1 -87 0 -55 11 19 7 37 9 40 5 3 -3 28 -8
55 -11z m123 -14 c-10 -2 -26 -2 -35 0 -10 3 -2 5 17 5 19 0 27 -2 18 -5z
m-248 -56 c0 -6 -11 2 -25 17 -14 15 -25 30 -25 33 0 4 11 -4 25 -17 14 -13
25 -28 25 -33z m1081 30 c-10 -9 -11 -8 -5 6 3 10 9 15 12 12 3 -3 0 -11 -7
-18z m-1369 -26 c20 -5 56 -24 80 -44 38 -30 54 -36 133 -47 150 -21 181 -30
89 -25 -44 2 -92 9 -106 14 -19 7 -28 7 -32 -2 -3 -9 -7 -8 -14 2 -12 17 -35
4 -28 -15 6 -16 -10 -28 -25 -18 -8 4 -7 9 2 15 11 7 10 9 -3 9 -9 0 -19 8
-21 18 -3 9 -4 -1 -2 -23 2 -22 0 -56 -5 -75 -4 -19 -8 -30 -9 -24 -1 5 -9 19
-19 30 -11 11 -21 41 -24 67 -5 43 -4 47 16 48 11 0 16 3 10 5 -7 3 -9 14 -6
26 4 19 2 20 -22 14 -20 -5 -26 -4 -20 5 4 7 3 9 -3 6 -6 -4 -8 -25 -6 -47 2
-23 0 -40 -6 -40 -6 0 -8 6 -5 14 3 8 1 17 -5 21 -6 3 -11 18 -11 33 0 18 -3
23 -9 14 -4 -7 -4 -34 0 -60 4 -26 8 -56 8 -67 0 -43 -21 30 -24 85 -5 76 -3
77 67 61z m338 3 c0 -8 -19 -13 -24 -6 -3 5 1 9 9 9 8 0 15 -2 15 -3z m-157
-23 c3 -12 -1 -22 -9 -25 -10 -4 -14 2 -14 19 0 30 16 33 23 6z m127 -15 c0
-2 -7 -6 -15 -10 -8 -3 -15 -1 -15 4 0 6 7 10 15 10 8 0 15 -2 15 -4z m1010
-17 c-7 -11 -14 -19 -16 -16 -7 7 7 37 17 37 6 0 5 -9 -1 -21z m-1074 -26 c-8
-8 -56 6 -56 17 0 5 13 5 31 -2 16 -6 28 -13 25 -15z m117 5 c6 -16 -49 -22
-72 -7 -13 8 -12 9 6 4 13 -3 31 -2 40 4 10 6 19 11 19 11 1 0 4 -6 7 -12z
m-142 -52 c19 -8 46 -12 60 -9 15 3 30 0 33 -6 4 -7 -1 -11 -13 -11 -17 0 -19
-4 -12 -23 6 -14 5 -26 -3 -32 -14 -13 -59 -17 -51 -5 3 5 1 12 -5 15 -6 4 -9
1 -8 -7 2 -7 -4 -11 -12 -9 -8 2 -28 4 -43 4 -30 0 -16 17 16 17 11 0 17 8 17
23 -1 20 -2 21 -14 5 -18 -25 -36 -22 -36 5 -1 20 -2 20 -11 5 -5 -10 -14 -18
-19 -18 -6 0 -2 9 7 20 13 15 26 19 53 15 19 -2 27 -2 18 1 -10 3 -18 10 -18
15 0 12 1 12 41 -5z m-291 -26 c0 -5 -4 -10 -10 -10 -5 0 -13 -12 -16 -26 -4
-17 -10 -22 -16 -16 -7 7 -4 19 8 36 20 26 34 33 34 16z m500 -37 c3 -3 -20
-3 -50 0 -40 5 -51 4 -40 -4 11 -8 12 -12 2 -16 -6 -2 -9 -9 -6 -15 4 -6 1 -9
-7 -6 -7 2 -15 18 -16 35 l-3 30 57 -9 c32 -5 60 -12 63 -15z m-417 11 c3 -3
3 -12 0 -20 -4 -11 -9 -12 -19 -3 -8 6 -11 15 -8 20 6 10 18 12 27 3z m454
-10 c-3 -3 -12 -4 -19 -1 -8 3 -5 6 6 6 11 1 17 -2 13 -5z m-417 -18 c0 -11
-19 -15 -25 -6 -3 5 1 10 9 10 9 0 16 -2 16 -4z m383 -3 c-7 -2 -19 -2 -25 0
-7 3 -2 5 12 5 14 0 19 -2 13 -5z m-429 -48 c-6 -16 -24 -21 -24 -7 0 11 11
22 21 22 5 0 6 -7 3 -15z m0 -40 c-4 -8 -8 -15 -10 -15 -2 0 -4 7 -4 15 0 8 4
15 10 15 5 0 7 -7 4 -15z m-134 1 c0 -3 -4 -8 -10 -11 -5 -3 -10 -1 -10 4 0 6
5 11 10 11 6 0 10 -2 10 -4z m1337 -38 c-3 -8 -6 -5 -6 6 -1 11 2 17 5 13 3
-3 4 -12 1 -19z m-205 -125 c8 -10 13 -22 12 -28 -5 -29 -17 -55 -25 -55 -5 0
-15 -12 -23 -27 -8 -16 -16 -26 -16 -23 -7 32 -7 59 1 55 5 -4 9 1 9 9 0 8
-11 16 -25 18 -36 4 -35 19 4 45 41 28 44 28 63 6z m-1111 -60 c-8 -15 -10
-15 -11 -2 0 17 10 32 18 25 2 -3 -1 -13 -7 -23z m939 -33 c0 -5 -5 -10 -11
-10 -5 0 -7 5 -4 10 3 6 8 10 11 10 2 0 4 -4 4 -10z"/>
<path d="M316 744 c-7 -18 30 -19 49 0 11 11 9 13 -15 14 -16 0 -31 -6 -34
-14z"/>
<path d="M425 460 c-3 -5 -2 -10 4 -10 5 0 13 5 16 10 3 6 2 10 -4 10 -5 0
-13 -4 -16 -10z"/>
<path d="M560 1560 c0 -5 -7 -10 -15 -10 -9 0 -15 -9 -15 -22 l1 -23 19 24
c19 22 26 41 15 41 -3 0 -5 -4 -5 -10z"/>
<path d="M640 1561 c12 -9 12 -11 -3 -17 -10 -3 -17 -17 -17 -32 l0 -27 32 32
c35 35 35 37 -2 47 -18 6 -21 5 -10 -3z"/>
<path d="M896 1554 c-4 -9 -4 -19 -1 -22 2 -3 7 3 11 12 4 9 4 19 1 22 -2 3
-7 -3 -11 -12z"/>
<path d="M940 1564 c0 -17 17 -36 24 -26 3 5 -1 15 -9 22 -8 7 -15 9 -15 4z"/>
<path d="M1026 1545 c4 -8 11 -15 16 -15 6 0 5 6 -2 15 -7 8 -14 15 -16 15 -2
0 -1 -7 2 -15z"/>
<path d="M845 1525 c-5 -11 -10 -24 -13 -30 -3 -5 -1 -7 3 -2 5 4 16 0 26 -9
25 -22 41 -10 27 21 -6 13 -14 22 -19 20 -4 -3 -9 1 -12 7 -3 8 -7 6 -12 -7z"/>
<path d="M1060 1500 c-6 -11 -7 -20 -2 -20 10 0 32 21 32 32 0 16 -19 8 -30
-12z"/>
<path d="M224 1456 c3 -22 5 -42 5 -43 1 -2 6 -3 12 -3 7 0 9 10 7 24 -3 15 0
27 8 30 22 9 16 23 -11 29 -25 4 -26 3 -21 -37z"/>
<path d="M1480 1490 c0 -5 4 -10 9 -10 6 0 13 5 16 10 3 6 -1 10 -9 10 -9 0
-16 -4 -16 -10z"/>
<path d="M402 1450 c14 -22 24 -19 15 5 -4 8 -11 15 -17 15 -6 0 -6 -7 2 -20z"/>
<path d="M1045 1449 c16 -27 38 -49 51 -49 21 0 6 25 -28 44 -21 13 -28 15
-23 5z"/>
<path d="M210 1384 c0 -11 -6 -15 -19 -11 -14 3 -18 1 -14 -9 3 -8 11 -14 18
-14 10 0 11 -7 6 -27 -5 -16 -7 -46 -6 -68 2 -22 3 -48 4 -57 2 -29 21 -21 21
8 0 19 4 25 15 20 13 -5 13 -1 -2 27 -16 31 -18 77 -4 87 4 3 6 11 5 18 -1 6
-2 19 -3 27 -1 20 -21 19 -21 -1z"/>
<path d="M4 1286 c1 -57 5 -104 10 -103 5 1 13 -13 16 -31 9 -40 15 -46 35
-38 22 8 29 34 17 59 -6 12 -13 61 -15 109 -2 48 -5 89 -8 91 -2 2 -16 7 -30
10 l-26 7 1 -104z"/>
<path d="M325 1320 c3 -5 8 -10 11 -10 2 0 4 5 4 10 0 6 -5 10 -11 10 -5 0 -7
-4 -4 -10z"/>
<path d="M284 1192 c4 -11 2 -23 -4 -27 -6 -3 -8 -11 -4 -16 3 -5 10 -7 15 -4
13 8 11 52 -2 61 -7 4 -9 0 -5 -14z"/>
<path d="M574 979 c-9 -16 2 -22 21 -11 15 8 16 10 1 15 -8 3 -18 2 -22 -4z"/>
<path d="M302 930 c-8 -13 -8 -20 -2 -20 6 0 13 7 17 15 9 24 -1 27 -15 5z"/>
<path d="M560 940 c0 -6 7 -10 15 -10 8 0 15 2 15 4 0 2 -7 6 -15 10 -8 3 -15
1 -15 -4z"/>
<path d="M470 821 c0 -14 -5 -18 -20 -14 -11 3 -20 0 -20 -6 0 -6 11 -11 24
-11 13 0 38 -3 55 -6 38 -8 43 13 6 22 -14 3 -25 12 -25 20 0 8 -4 14 -10 14
-5 0 -10 -9 -10 -19z"/>
<path d="M328 803 c6 -2 18 -2 25 0 6 3 1 5 -13 5 -14 0 -19 -2 -12 -5z"/>
<path d="M370 805 c0 -7 30 -13 34 -7 3 4 -4 9 -15 9 -10 1 -19 0 -19 -2z"/>
<path d="M1 693 c0 -4 4 -17 9 -28 8 -19 9 -19 9 2 1 12 -3 25 -9 28 -5 3 -10
3 -9 -2z"/>
<path d="M55 549 c-11 -17 1 -21 15 -4 8 9 8 15 2 15 -6 0 -14 -5 -17 -11z"/>
<path d="M7 499 c7 -7 15 -10 18 -7 3 3 -2 9 -12 12 -14 6 -15 5 -6 -5z"/>
<path d="M5 460 c3 -5 11 -10 16 -10 6 0 7 5 4 10 -3 6 -11 10 -16 10 -6 0 -7
-4 -4 -10z"/>
<path d="M7 143 c-4 -3 -7 -11 -7 -17 0 -6 5 -5 12 2 6 6 9 14 7 17 -3 3 -9 2
-12 -2z"/>
<path d="M700 56 c0 -20 2 -36 4 -36 8 0 12 61 4 66 -4 3 -8 -11 -8 -30z"/>
</g>
</svg>
